<svg width="252" height="114" viewBox="0 0 252 114" fill="none" xmlns="http://www.w3.org/2000/svg">
    <g clip-path="url(#clip0_1_125)">
        <path d="M143.468 19.5778C143.468 19.5778 126.191 40.8512 127.075 42.2076C128.301 40.8512 120.872 19.3452 120.872 19.3452C120.872 19.3452 119.322 14.8233 114.458 0.00157928H96.847H54.1066H21.8773L18.659 13.9156H42.9206H48.677C64.2845 13.9156 73.8136 20.3673 71.1522 31.7985C68.2772 44.2455 54.6548 49.5594 40.1448 49.5594H34.719L41.6986 19.1265H17.4421L7.14355 63.5891H41.5868C67.499 63.5891 92.0812 49.6763 96.5138 31.7985C97.2895 28.5123 97.1801 20.2516 95.1888 15.389C95.1888 15.2721 95.0744 15.0483 94.965 14.7139C94.8557 14.597 94.7413 13.8063 95.1888 13.6906C95.405 13.5749 95.8488 14.0313 95.8488 14.1407C95.8488 14.1407 96.0738 14.7139 96.2901 15.1627L118.215 78.4159L174.037 14.03L197.622 13.9144H203.379C218.997 13.9144 228.635 20.366 225.968 31.7972C223.089 44.2442 209.368 49.5581 194.854 49.5581H189.316L196.4 19.1265H172.154L161.848 63.5891H196.291C222.202 63.5891 247.008 49.6763 251.107 31.7985C255.315 13.9156 237.152 0.00157928 211.017 0.00157928H188.209H159.638C146.018 16.406 143.468 19.5778 143.468 19.5778Z"
              fill="#FF0000"/>
        <path d="M118.991 78.6422C53.4394 78.6422 0.286133 86.3359 0.286133 95.8437C0.286133 105.345 53.4394 113.039 118.991 113.039C184.662 113.039 237.821 105.345 237.821 95.8437C237.822 86.3359 184.664 78.6422 118.991 78.6422ZM114.784 101.955C99.7236 101.955 87.655 99.3498 87.655 96.1781C87.655 93.0063 99.7224 90.4078 114.784 90.4078C129.729 90.4078 141.81 93.005 141.81 96.1781C141.81 99.3498 129.729 101.955 114.784 101.955Z"
              fill="#FF0000"/>
    </g>
    <defs>
        <clipPath id="clip0_1_125">
            <rect width="252" height="114" fill="white"/>
        </clipPath>
    </defs>
</svg>
